<svg version="1.1" id="Layer_1" xmlns:x="ns_extend;" xmlns:i="ns_ai;" xmlns:graph="ns_graphs;" xmlns="http://www.w3.org/2000/svg" xmlns:xlink="http://www.w3.org/1999/xlink" x="0px" y="0px" viewBox="0 0 675 169" style="enable-background:new 0 0 675 169;" xml:space="preserve">
 <style type="text/css">
  .st0{fill:#ED3B41;}
	.st1{enable-background:new    ;}
 </style>
 <metadata id="CorelCorpID_0Corel-Layer">
  <sfw xmlns="ns_sfw;">
   <slices>
   </slices>
   <sliceSourceBounds bottomLeftOrigin="true" height="169" width="675" x="-647.2" y="0">
   </sliceSourceBounds>
  </sfw>
 </metadata>
 <g id="Layer_x0020_1">
  <g id="_2361521943856">
   <path class="st0" d="M77.9,133.4c-30.7,0-55.5-24.8-55.5-55.5c0-30.7,24.8-55.5,55.5-55.5s55.5,24.8,55.5,55.5
			C133.4,108.6,108.6,133.4,77.9,133.4z M77.9,0C34.9,0,0,34.9,0,77.9c0,43,34.9,77.9,77.9,77.9s77.9-34.9,77.9-77.9
			C155.8,34.9,121,0,77.9,0z">
   </path>
   <polygon class="st0" points="116.8,89.6 79.3,89.6 109.8,45 45.9,45 45.9,60.8 76.5,60.8 46,105.5 94.3,105.5 94.3,122.3 		">
   </polygon>
   <path class="st0" d="M278.6,38.4V24.8h-83.5v19.7h51.8L191,118.7v14h87.7V113H224L278.6,38.4z M356,132.8V86.7
			c0-7.1-1.1-13.1-3.3-18c-2.2-4.9-5.8-8.6-10.7-11.1c-4.9-2.5-11.3-3.8-19.3-3.8c-2.6,0-5.4,0.2-8.2,0.6c-2.8,0.4-5.6,0.9-8.3,1.5
			c-2.7,0.6-5.2,1.3-7.5,2.1c-2.3,0.8-4.1,1.5-5.6,2.3v17.9c2.4-1.6,4.9-3,7.8-4.2c2.9-1.2,5.9-2.2,9-2.9c3.1-0.7,6.4-1.1,9.6-1.1
			c2.8,0,5.3,0.5,7.3,1.4c2.1,0.9,3.7,2.3,4.8,4.2c1.1,1.9,1.7,4.2,1.7,7l-21.2,2.8c-5.1,0.7-9.3,1.8-12.8,3.4
			c-3.4,1.6-6.2,3.6-8.2,5.9s-3.5,4.9-4.4,7.7c-0.9,2.8-1.4,5.8-1.3,8.9c0,4.5,0.9,8.5,2.8,12c1.9,3.5,4.6,6.2,8.2,8.2
			c3.6,2,8,3,13.3,3.1c5.2,0,9.7-1.1,13.6-3.4c3.9-2.2,7.1-5.4,9.5-9.6h0.3v11.1C333.3,132.8,356,132.8,356,132.8z M335.1,96.2v5.2
			c0,3.2-0.7,6-1.9,8.4c-1.3,2.4-3.1,4.4-5.3,5.8c-2.3,1.4-4.9,2.1-7.9,2.2c-2.3,0-4.2-0.5-5.8-1.3c-1.6-0.8-2.8-1.9-3.6-3.3
			c-0.8-1.4-1.2-2.9-1.2-4.6c0-2,0.3-3.6,1.1-5c0.8-1.4,2-2.6,3.7-3.5c1.7-0.9,4-1.5,6.9-2C320.9,98.1,335.1,96.2,335.1,96.2z
			 M448.3,124V55.7h-24v8.9H424c-1.3-2-2.9-3.9-4.8-5.5c-1.9-1.6-4.3-2.9-7-3.9c-2.7-0.9-5.9-1.4-9.5-1.5c-5.1,0-9.8,0.9-14,2.8
			c-4.3,1.9-8,4.6-11.2,8.3c-3.2,3.6-5.7,8.1-7.4,13.4c-1.8,5.3-2.6,11.3-2.7,18.1c0,5.8,0.8,11.1,2.3,15.7
			c1.5,4.7,3.7,8.7,6.5,12.1c2.8,3.4,6.2,5.9,10.2,7.7c4,1.8,8.5,2.7,13.5,2.7c4,0,7.5-0.6,10.6-1.7c3.1-1.1,5.7-2.7,8-4.6
			c2.3-2,4.2-4.1,5.7-6.6h0.3v6.2c0,3.3-0.5,6.4-1.5,9.2c-1,2.8-2.6,5.3-4.7,7.5c-2.1,2.2-4.7,3.8-7.9,5c-3.2,1.2-7,1.8-11.4,1.9
			c-3.3,0-6.5-0.4-9.5-1.1c-3-0.7-5.7-1.6-8.2-2.6c-2.5-1.1-4.7-2.1-6.6-3.2v20.1c1.4,0.7,3.5,1.4,6,2.1c2.6,0.7,5.5,1.2,8.7,1.7
			c3.3,0.5,6.7,0.7,10.2,0.7c8.8,0,16.3-1.2,22.5-3.5c6.2-2.3,11.3-5.5,15.1-9.6c3.9-4.1,6.7-8.9,8.5-14.3
			C447.5,136.1,448.4,130.3,448.3,124z M424.7,95.8c0,4.2-0.7,7.8-2.1,10.9c-1.4,3.1-3.3,5.5-5.8,7.2c-2.5,1.7-5.4,2.5-8.7,2.6
			c-3.5,0-6.5-0.9-8.9-2.7c-2.4-1.8-4.2-4.2-5.5-7.4c-1.2-3.1-1.8-6.7-1.8-10.7c0-5.1,0.7-9.3,2.1-12.8c1.4-3.5,3.3-6.2,5.9-8
			c2.5-1.8,5.6-2.7,9.1-2.7c2.5,0,4.8,0.5,6.7,1.5c2,1,3.6,2.3,4.9,4c1.3,1.7,2.4,3.5,3,5.6c0.7,2.1,1,4.2,1,6.4
			C424.7,89.6,424.7,95.8,424.7,95.8z M540.1,124V55.7h-24v8.9h-0.3c-1.3-2-2.9-3.9-4.8-5.5c-1.9-1.6-4.3-2.9-7-3.9
			c-2.7-0.9-5.9-1.4-9.5-1.5c-5.1,0-9.8,0.9-14,2.8c-4.3,1.9-8,4.6-11.2,8.3c-3.2,3.6-5.7,8.1-7.4,13.4c-1.8,5.3-2.6,11.3-2.7,18.1
			c0,5.8,0.8,11.1,2.3,15.7c1.5,4.7,3.7,8.7,6.5,12.1c2.8,3.4,6.2,5.9,10.2,7.7c4,1.8,8.5,2.7,13.5,2.7c4,0,7.5-0.6,10.6-1.7
			c3.1-1.1,5.7-2.7,8-4.6c2.3-2,4.1-4.1,5.7-6.6h0.3v6.2c0,3.3-0.5,6.4-1.5,9.2c-1,2.8-2.6,5.3-4.7,7.5c-2.1,2.2-4.7,3.8-7.9,5
			c-3.2,1.2-7,1.8-11.4,1.9c-3.3,0-6.5-0.4-9.5-1.1c-3-0.7-5.7-1.6-8.2-2.6c-2.5-1.1-4.7-2.1-6.6-3.2v20.1c1.4,0.7,3.4,1.4,6,2.1
			c2.6,0.7,5.5,1.2,8.7,1.7c3.3,0.5,6.7,0.7,10.2,0.7c8.8,0,16.3-1.2,22.5-3.5c6.2-2.3,11.2-5.5,15.1-9.6c3.9-4.1,6.7-8.9,8.5-14.3
			C539.3,136.1,540.1,130.3,540.1,124z M516.5,95.8c0,4.2-0.7,7.8-2.1,10.9c-1.4,3.1-3.3,5.5-5.8,7.2c-2.5,1.7-5.4,2.5-8.7,2.6
			c-3.5,0-6.5-0.9-8.9-2.7c-2.4-1.8-4.2-4.2-5.4-7.4c-1.2-3.1-1.9-6.7-1.9-10.7c0-5.1,0.7-9.3,2.1-12.8c1.4-3.5,3.3-6.2,5.9-8
			c2.5-1.8,5.6-2.7,9.1-2.7c2.5,0,4.8,0.5,6.7,1.5c2,1,3.6,2.3,4.9,4c1.3,1.7,2.4,3.5,3,5.6c0.7,2.1,1,4.2,1,6.4
			C516.5,89.6,516.5,95.8,516.5,95.8z M577,18.7h-24v114.1h24C577,132.8,577,18.7,577,18.7z M662.6,101V91c0-5.2-0.7-10-2.1-14.5
			c-1.4-4.5-3.5-8.4-6.4-11.8c-2.9-3.4-6.6-6.1-11.1-8c-4.5-1.9-9.8-2.9-16.1-2.9c-3.7,0-7.3,0.5-11,1.5c-3.7,1-7.2,2.6-10.5,4.7
			c-3.3,2.1-6.3,4.8-8.9,8.1c-2.6,3.3-4.6,7.2-6.1,11.7c-1.5,4.5-2.3,9.7-2.3,15.6c0,8.1,1.6,15.1,4.6,20.9
			c3,5.8,7.5,10.3,13.4,13.5c5.9,3.2,13.1,4.7,21.7,4.8c4.6,0,8.7-0.4,12.3-1c3.7-0.6,6.8-1.4,9.4-2.2c2.6-0.9,4.7-1.7,6.2-2.5
			v-17.1c-1.8,1.1-3.9,2.1-6.2,3c-2.4,0.9-5,1.6-7.7,2.2c-2.8,0.6-5.6,0.8-8.6,0.8c-4.7,0-8.5-0.7-11.6-2.2c-3.1-1.4-5.4-3.4-7-5.9
			c-1.6-2.5-2.5-5.4-2.7-8.7C611.9,101,662.6,101,662.6,101z M643,86.4h-28.6c0.3-2.1,0.8-4.2,1.6-6.2c0.8-2,1.9-3.7,3.2-5.3
			c1.3-1.5,2.8-2.8,4.5-3.7c1.7-0.9,3.7-1.4,5.8-1.4c2.6,0,4.7,0.5,6.5,1.4s3.1,2.1,4.2,3.7c1,1.6,1.8,3.3,2.2,5.3
			C642.7,82.2,643,84.2,643,86.4z">
   </path>
   <g class="st1">
    <path d="M675,47.4c0,2.8-2.2,4.9-5,4.9c-2.8,0-5-2.2-5-4.9c0-2.7,2.2-4.9,5-4.9C672.8,42.6,675,44.8,675,47.4z M666.2,47.4
				c0,2.2,1.6,3.9,3.8,3.9c2.1,0,3.7-1.7,3.7-3.9c0-2.2-1.6-3.9-3.7-3.9C667.8,43.6,666.2,45.3,666.2,47.4z M669.2,50h-1.1v-4.9
				c0.4-0.1,1-0.2,1.8-0.2c0.9,0,1.3,0.2,1.7,0.4c0.3,0.2,0.5,0.6,0.5,1.1c0,0.5-0.4,0.9-1,1.1v0.1c0.5,0.2,0.7,0.5,0.9,1.2
				c0.2,0.7,0.2,1,0.4,1.2h-1.2c-0.1-0.2-0.2-0.6-0.4-1.2c-0.1-0.5-0.4-0.8-1-0.8h-0.5V50z M669.2,47.2h0.5c0.6,0,1.1-0.2,1.1-0.7
				c0-0.4-0.3-0.7-1-0.7c-0.3,0-0.5,0-0.6,0.1V47.2z">
    </path>
   </g>
  </g>
 </g>
</svg>